<?xml version="1.0" encoding="UTF-8" standalone="no"?>
<!-- Created with Inkscape (http://www.inkscape.org/) -->

<svg
   version="1.1"
   id="svg2"
   xml:space="preserve"
   width="120"
   height="120"
   viewBox="0 0 120 120"
   sodipodi:docname="aae4c666-eec7-4a48-bc47-0f62b96ea473.svg"
   inkscape:version="1.4 (e7c3feb100, 2024-10-09)"
   xmlns:inkscape="http://www.inkscape.org/namespaces/inkscape"
   xmlns:sodipodi="http://sodipodi.sourceforge.net/DTD/sodipodi-0.dtd"
   xmlns="http://www.w3.org/2000/svg"
   xmlns:svg="http://www.w3.org/2000/svg"
   xmlns:rdf="http://www.w3.org/1999/02/22-rdf-syntax-ns#"
   xmlns:cc="http://creativecommons.org/ns#"
   xmlns:dc="http://purl.org/dc/elements/1.1/"><metadata
     id="metadata8"><rdf:RDF><cc:Work
         rdf:about=""><dc:format>image/svg+xml</dc:format><dc:type
           rdf:resource="http://purl.org/dc/dcmitype/StillImage" /></cc:Work></rdf:RDF></metadata><defs
     id="defs6"><clipPath
       clipPathUnits="userSpaceOnUse"
       id="clipPath20"><path
         d="M 64.09713,512 H 447.9029 c 22.2879,0 30.3701,-2.3206 38.5182,-6.6783 8.1482,-4.3577 14.5429,-10.7524 18.9006,-18.9006 C 509.6794,478.273 512,470.1908 512,447.9029 V 64.09713 C 512,41.80916 509.6794,33.72701 505.3217,25.57886 500.964,17.43071 494.5693,11.03599 486.4211,6.678318 478.273,2.32064 470.1908,0 447.9029,0 H 64.09713 C 41.80916,0 33.72701,2.32064 25.57886,6.678318 17.43071,11.03599 11.03599,17.43071 6.678318,25.57886 2.32064,33.72701 0,41.80916 0,64.09713 V 447.9029 c 0,22.2879 2.32064,30.3701 6.678318,38.5182 4.357672,8.1482 10.752392,14.5429 18.900542,18.9006 8.14815,4.3577 16.2303,6.6783 38.51827,6.6783 z"
         clip-rule="evenodd"
         id="path18" /></clipPath><clipPath
       clipPathUnits="userSpaceOnUse"
       id="clipPath26"><path
         d="M 0,0 H 512 V 512 H 0 Z"
         id="path24" /></clipPath><clipPath
       clipPathUnits="userSpaceOnUse"
       id="clipPath36"><path
         d="M 310.6214,362 424.7089,162.0939 H 310.6961 l -57.0086,99.4988 z"
         clip-rule="evenodd"
         id="path34" /></clipPath><clipPath
       clipPathUnits="userSpaceOnUse"
       id="clipPath42"><path
         d="M 0,0 H 512 V 512 H 0 Z"
         id="path40" /></clipPath><clipPath
       clipPathUnits="userSpaceOnUse"
       id="clipPath52"><path
         d="M 197.1006,362 83.51535,162.0939 H 197.1006 L 310.6214,362 Z"
         clip-rule="evenodd"
         id="path50" /></clipPath><clipPath
       clipPathUnits="userSpaceOnUse"
       id="clipPath58"><path
         d="M 0,0 H 512 V 512 H 0 Z"
         id="path56" /></clipPath></defs><sodipodi:namedview
     pagecolor="#ffffff"
     bordercolor="#666666"
     borderopacity="1"
     objecttolerance="10"
     gridtolerance="10"
     guidetolerance="10"
     inkscape:pageopacity="0"
     inkscape:pageshadow="2"
     inkscape:window-width="1920"
     inkscape:window-height="1164"
     id="namedview4"
     showgrid="false"
     inkscape:zoom="3.779535"
     inkscape:cx="63.764458"
     inkscape:cy="81.359215"
     inkscape:window-x="0"
     inkscape:window-y="0"
     inkscape:window-maximized="1"
     inkscape:current-layer="g10"
     inkscape:showpageshadow="2"
     inkscape:pagecheckerboard="0"
     inkscape:deskcolor="#d1d1d1" /><g
     id="g10"
     inkscape:groupmode="layer"
     inkscape:label="ink_ext_XXXXXX"
     transform="matrix(1.3333333,0,0,-1.3333333,0,120)"><g
       id="g200"
       transform="matrix(1.1078015,0,0,-1.1078015,-12.923261,134.79089)"><path
         style="fill:#acca58;stroke-width:0.32"
         d="m 63.649334,102.17203 c -0.331958,-0.33196 -0.250828,-1.38667 0.106666,-1.38667 0.176,0 0.32,0.36 0.32,0.8 0,0.83778 -0.07392,0.93942 -0.426666,0.58667 z M 63.15521,99.665362 c -0.02637,-0.352 -0.122045,-1 -0.212605,-1.44 l -0.164659,-0.8 0.342764,0.785011 c 0.188522,0.431754 0.284192,1.079754 0.212605,1.44 -0.126803,0.638097 -0.131395,0.638487 -0.178105,0.01498 z m 0.997491,-0.96 c -0.0074,-0.704 0.09608,-2.072 0.229891,-3.04 0.210262,-1.521018 0.245117,-1.586195 0.256707,-0.48 0.0074,0.704 -0.09608,2.072 -0.229891,3.04 -0.210262,1.521018 -0.245117,1.586195 -0.256707,0.48 z m -1.796701,-2.76 c -0.266768,-1.33384 -0.0083,-1.592365 0.28,-0.28 0.121498,0.553171 0.154198,1.072467 0.07268,1.153994 -0.08153,0.08153 -0.240235,-0.311773 -0.35268,-0.873994 z m -0.494736,-2.093827 c -0.01389,-0.205607 -0.108138,-0.637607 -0.209427,-0.96 -0.175056,-0.557191 -0.166026,-0.557888 0.182649,-0.01411 0.201744,0.31463 0.295988,0.74663 0.209424,0.96 -0.113593,0.279997 -0.164412,0.283926 -0.182646,0.01411 z m -1.045021,-3.543347 c -0.296864,-1.00649 -0.491536,-1.878199 -0.432601,-1.937133 0.171833,-0.171834 1.1956,3.104953 1.07855,3.452137 -0.05841,0.173236 -0.349082,-0.508515 -0.645949,-1.515004 z m 4.020771,-2.322826 c 0,-2.024 0.05196,-2.852 0.115463,-1.84 0.0635,1.012 0.0635,2.668 0,3.68 -0.0635,1.012 -0.115463,0.184 -0.115463,-1.84 z m -4.89575,-0.213827 c -0.01389,-0.205607 -0.108138,-0.637607 -0.209427,-0.96 -0.175056,-0.557191 -0.166026,-0.557888 0.182649,-0.01411 0.201744,0.31463 0.295988,0.74663 0.209424,0.96 -0.113593,0.279997 -0.164412,0.283926 -0.182646,0.01411 z m -0.785731,-2.198544 c -0.308794,-0.804701 -0.217699,-1.012336 0.159529,-0.363629 0.186781,0.3212 0.272192,0.651411 0.189802,0.733802 -0.08239,0.08239 -0.23959,-0.08419 -0.349331,-0.370173 z M 57.513248,81.718424 C 53.87071,73.543663 47.16384,64.715526 40.136413,58.845598 36.763676,56.028392 30.940311,51.987563 27.516,50.088302 c -1.188,-0.658912 -2.16,-1.270843 -2.16,-1.359847 0,-0.231274 3.856629,1.920022 6.529089,3.642041 8.742786,5.633478 15.96749,12.726724 21.311049,20.923276 2.015408,3.091462 5.971929,10.746192 5.696678,11.02144 -0.08465,0.08465 -0.705453,-1.083908 -1.379568,-2.596788 z m 6.751514,-1.363974 c -0.128484,-1.292998 -0.164192,-2.420326 -0.07935,-2.505168 0.211411,-0.211408 0.635245,3.903699 0.456471,4.431984 -0.07893,0.233254 -0.248637,-0.633814 -0.377121,-1.926816 z m 9.14527,0.283274 c -0.42192,-2.04273 -0.332781,-3.129869 0.100317,-1.223472 0.235453,1.036419 0.242307,1.039929 0.490323,0.25111 0.226512,-0.720426 0.251533,-0.688595 0.251533,0.32 0,0.616 -0.09654,1.464774 -0.214544,1.886166 -0.171786,0.613479 -0.296864,0.3676 -0.627629,-1.233804 z M 72.596,77.065362 c -0.266768,-1.33384 -0.0083,-1.592365 0.28,-0.28 0.121498,0.553171 0.154198,1.072467 0.07267,1.153994 -0.08152,0.08153 -0.240225,-0.311773 -0.35267,-0.873994 z m 1.850938,-4.6 c -3.2e-4,-2.992 0.04773,-4.259072 0.106883,-2.815712 0.05916,1.443357 0.05946,3.891357 6.4e-4,5.44 -0.05878,1.54864 -0.107184,0.367712 -0.107552,-2.624288 z m -10.833159,3.502221 c -0.120477,-0.642189 -0.155049,-1.231619 -0.07682,-1.30984 0.07822,-0.07822 0.240793,0.383206 0.361267,1.025398 0.120477,0.642189 0.155049,1.231619 0.07682,1.30984 -0.07822,0.07822 -0.240793,-0.383206 -0.361267,-1.025398 z m 8.325079,-1.285079 c -0.117703,-0.468963 -0.152292,-0.914374 -0.07686,-0.989804 0.07543,-0.07543 0.233443,0.246556 0.351145,0.71552 0.117703,0.468963 0.152292,0.914374 0.07686,0.989804 -0.07543,0.07543 -0.233443,-0.246556 -0.351145,-0.71552 z M 62.956,73.265362 c -0.121498,-0.553171 -0.148902,-1.077763 -0.0609,-1.165763 0.088,-0.088 0.259404,0.292592 0.380902,0.845763 0.121498,0.553171 0.148902,1.077763 0.0609,1.165763 -0.088,0.088 -0.259404,-0.292592 -0.380902,-0.845763 z m 8.036922,-1.476922 c -0.28328,-0.831385 -0.459671,-1.566995 -0.391978,-1.634688 0.06769,-0.06769 0.354851,0.557149 0.638134,1.388532 0.28328,0.831385 0.459671,1.566995 0.391978,1.634688 -0.06769,0.06769 -0.354851,-0.557149 -0.638134,-1.388532 z M 61.696838,69.421692 C 59.845011,64.701694 55.74809,59.839818 51.318774,57.105888 49.394771,55.918326 48.653382,55.272147 50.076,56.022713 c 3.374422,1.780328 7.281914,5.327203 9.456675,8.583932 1.228115,1.839117 3.44105,6.667658 3.17688,6.931831 -0.07198,0.07198 -0.527705,-0.88057 -1.012717,-2.116784 z m 8.036512,-0.811204 c -0.751734,-1.576406 -0.645977,-1.844652 0.13993,-0.354931 0.356947,0.676611 0.59239,1.2868 0.52321,1.355984 -0.06918,0.06918 -0.367594,-0.381293 -0.66314,-1.001053 z m -1.030508,-2.086416 c -0.11601,-0.187708 -0.142298,-0.40992 -0.05842,-0.493801 0.08388,-0.08388 0.237779,0.0697 0.342,0.341289 0.216377,0.563876 0.03197,0.66306 -0.283584,0.152512 z m 5.147702,-1.753256 c -0.122403,-0.81626 -0.157101,-1.549564 -0.0771,-1.629564 0.08,-0.08 0.245607,0.522395 0.368013,1.338656 0.122403,0.81626 0.157101,1.549566 0.0771,1.629566 -0.08,0.08 -0.245607,-0.522397 -0.368013,-1.338658 z M 67.756,64.625362 c -0.27304,-0.528 -0.424435,-0.96 -0.336435,-0.96 0.088,0 0.383395,0.432 0.656435,0.96 0.27304,0.528 0.424435,0.96 0.336435,0.96 -0.088,0 -0.383395,-0.432 -0.656435,-0.96 z m -1.921728,-3.12 c -0.666787,-1.012 -1.656416,-2.416 -2.199174,-3.12 -0.542759,-0.704 -0.737735,-1.082486 -0.43328,-0.84108 0.915673,0.726054 4.389449,5.80108 3.970745,5.80108 -0.06927,0 -0.671504,-0.828 -1.338291,-1.84 z m 15.12393,1.2 c -0.353789,-1.212321 -0.310384,-1.796182 0.102816,-1.382983 0.18976,0.189759 0.296784,0.758559 0.23783,1.264 l -0.107184,0.918983 z m -7.739344,-0.822857 c -0.117703,-0.468964 -0.152292,-0.914377 -0.07686,-0.989805 0.07543,-0.07543 0.233443,0.246555 0.351145,0.715519 0.117703,0.468964 0.152292,0.914377 0.07686,0.989805 -0.07543,0.07543 -0.233443,-0.246555 -0.351145,-0.715519 z m 8.252502,-3.657143 c 0,-1.672 0.05393,-2.356 0.119853,-1.52 0.06592,0.836 0.06592,2.204 0,3.04 -0.06592,0.836 -0.119853,0.152 -0.119853,-1.52 z m -1.212502,1.737143 c -0.117703,-0.468964 -0.152292,-0.914377 -0.07686,-0.989805 0.07543,-0.07543 0.233443,0.246555 0.351145,0.715519 0.117703,0.468964 0.152292,0.914377 0.07686,0.989805 -0.07543,0.07543 -0.233443,-0.246555 -0.351145,-0.715519 z m -7.517594,0.289029 c -0.01389,-0.205605 -0.108138,-0.637605 -0.209427,-0.96 -0.175056,-0.55719 -0.166026,-0.557888 0.182649,-0.01412 0.201744,0.314631 0.295988,0.746631 0.209424,0.96 -0.113593,0.279999 -0.164412,0.283926 -0.182646,0.01412 z m -0.838422,-2.047462 c -0.11601,-0.187709 -0.142298,-0.40992 -0.05842,-0.493801 0.08388,-0.08388 0.237779,0.0697 0.342,0.34129 0.216377,0.563874 0.03197,0.663059 -0.283584,0.152511 z m 7.400192,-1.127642 c -1.685613,-4.5744 -5.76409,-9.483472 -10.40514,-12.524182 -1.508041,-0.988034 -2.855107,-1.892193 -2.993478,-2.009241 -0.138371,-0.117048 0.653629,0.0087 1.76,0.27948 1.56807,0.383752 1.843248,0.532223 1.248083,0.673395 -0.704995,0.167224 -0.631427,0.269879 0.96,1.339591 2.412855,1.621852 5.578426,4.848937 7.194058,7.33385 1.48928,2.290574 3.087005,5.663351 2.920057,6.164194 -0.05756,0.172689 -0.365174,-0.393 -0.68358,-1.257087 z M 70.52855,55.698587 c -1.484953,-2.291672 -4.442083,-4.879143 -7.196966,-6.2973 -1.328243,-0.683752 -2.362707,-1.295467 -2.29881,-1.359366 0.245962,-0.24596 4.562631,2.244466 6.138109,3.541273 1.744355,1.435812 3.381037,3.332213 4.144499,4.802168 0.711882,1.370642 0.330794,1.038015 -0.786832,-0.686775 z m -11.358032,-2.11288 c -3.424156,-3.290243 -8.518457,-6.984586 -12.609372,-9.144208 -1.097168,-0.579204 -1.961168,-1.085727 -1.92,-1.125608 0.04117,-0.03988 0.858262,0.08294 1.815763,0.272927 1.263715,0.25075 1.571293,0.404935 1.122118,0.562498 -0.540093,0.189454 -0.476617,0.289921 0.499091,0.789932 2.887245,1.479601 8.106567,5.412718 11.328282,8.536637 1.952278,1.893018 3.4776,3.440935 3.3896,3.439813 -0.088,-0.0011 -1.719469,-1.500517 -3.625482,-3.331991 z M 48.396,55.345362 c -0.288413,-0.186387 -0.327882,-0.312156 -0.09889,-0.3151 0.209612,-0.0027 0.470112,0.1391 0.578886,0.3151 0.245536,0.397288 0.134758,0.397288 -0.48,0 z m -2.24,-0.96 c -0.616,-0.337246 -0.976,-0.613174 -0.8,-0.613174 0.176,0 0.824,0.275928 1.44,0.613174 0.616,0.337246 0.976,0.613174 0.8,0.613174 -0.176,0 -0.824,-0.275928 -1.44,-0.613174 z m 34.737779,-1.137778 c -0.120477,-0.642191 -0.155049,-1.23162 -0.07682,-1.309842 0.07822,-0.07822 0.240793,0.383207 0.361267,1.025398 0.120477,0.642191 0.155049,1.23162 0.07682,1.309842 -0.07822,0.07822 -0.240793,-0.383207 -0.361267,-1.025398 z M 42.956,53.105362 c -0.792,-0.332333 -1.224,-0.601608 -0.96,-0.598388 0.537853,0.0066 3.222074,1.187593 2.72,1.196776 -0.176,0.0032 -0.968,-0.266055 -1.76,-0.598388 z m -2.72,-0.96 c -0.421997,-0.181338 -0.476499,-0.28101 -0.16,-0.292609 0.264,-0.0097 0.696,0.121999 0.96,0.292609 0.58495,0.378023 0.07971,0.378023 -0.8,0 z m -2.08,-0.64 c -0.426667,-0.275733 -0.426667,-0.3102 0,-0.3102 0.264,0 0.696,0.13959 0.96,0.3102 0.426666,0.275733 0.426666,0.3102 0,0.3102 -0.264,0 -0.696,-0.13959 -0.96,-0.3102 z m 41.776784,-1.24278 C 79.263011,48.777294 77.272093,46.797658 75.276,45.632194 c -0.792,-0.462428 -1.27641,-0.84214 -1.076464,-0.843805 0.624918,-0.0052 4.083546,2.458646 4.786886,3.410074 0.865255,1.170457 1.814935,3.00821 1.643245,3.179899 -0.07344,0.07344 -0.387037,-0.428662 -0.696883,-1.11578 z M 36.076,50.865362 c -0.403404,-0.173349 -0.462553,-0.275017 -0.16,-0.275017 0.264,0 0.768,0.123757 1.12,0.275017 0.403404,0.173349 0.462553,0.275017 0.16,0.275017 -0.264,0 -0.768,-0.123757 -1.12,-0.275017 z m -2.4,-0.64 c -0.643114,-0.205961 -0.674491,-0.258049 -0.16,-0.265611 0.352,-0.0052 0.928,0.114351 1.28,0.265611 0.815432,0.350403 -0.02587,0.350403 -1.12,0 z m -2.4,-0.64 c -0.403404,-0.173349 -0.462553,-0.275017 -0.16,-0.275017 0.264,0 0.768,0.123757 1.12,0.275017 0.403404,0.173349 0.462553,0.275017 0.16,0.275017 -0.264,0 -0.768,-0.123757 -1.12,-0.275017 z m -2.56,-0.64 c -0.815432,-0.350403 0.02587,-0.350403 1.12,0 0.643114,0.205961 0.674491,0.258049 0.16,0.265611 -0.352,0.0052 -0.928,-0.114351 -1.28,-0.265611 z m -5.06425,-0.863029 c -1.145678,-0.601997 -0.894336,-0.875468 0.55477,-0.603615 0.805669,0.151145 1.069893,0.341701 0.940684,0.678413 -0.212078,0.552668 -0.310693,0.547735 -1.495454,-0.0748 z m 2.50425,0.223029 -0.64,-0.275017 h 0.64 c 0.352,0 0.928,0.123757 1.28,0.275017 l 0.64,0.275017 h -0.64 c -0.352,0 -0.928,-0.123757 -1.28,-0.275017 z m 33.44,-0.64 c -0.264,-0.17061 -0.336,-0.3102 -0.16,-0.3102 0.176,0 0.536,0.13959 0.8,0.3102 0.264,0.17061 0.336,0.3102 0.16,0.3102 -0.176,0 -0.536,-0.13959 -0.8,-0.3102 z m -2.72,-0.987202 c -0.88,-0.33968 -1.183904,-0.536731 -0.675338,-0.437893 1.006327,0.195579 3.11496,1.052075 2.595338,1.05419 -0.176,7.04e-4 -1.04,-0.276617 -1.92,-0.616297 z m -4.32,-1.23952 c -0.968,-0.323192 -1.616,-0.600438 -1.44,-0.616103 0.176,-0.01566 1.184,0.244428 2.24,0.577982 1.056,0.333555 1.704,0.610802 1.44,0.616104 -0.264,0.0053 -1.272,-0.25479 -2.24,-0.577983 z m -3.68,-0.973278 c -0.81543,-0.350403 0.02586,-0.350403 1.12,0 0.643114,0.205961 0.674493,0.258049 0.16,0.265611 -0.352,0.0052 -0.928,-0.114351 -1.28,-0.265611 z m 23.68,0 c -0.421997,-0.181338 -0.476499,-0.28101 -0.16,-0.292609 0.264,-0.0097 0.696,0.121999 0.96,0.292609 0.58495,0.378023 0.07971,0.378023 -0.8,0 z m -2.24,-0.64 c -0.403405,-0.173349 -0.462554,-0.275017 -0.16,-0.275017 0.264,0 0.768,0.123757 1.12,0.275017 0.403405,0.173349 0.462554,0.275017 0.16,0.275017 -0.264,0 -0.768,-0.123757 -1.12,-0.275017 z"
         id="path186" /><path
         style="fill:#9ccb19;stroke-width:0.32"
         d="m 63.436,99.873112 c 0,-0.501734 -0.126058,-1.329734 -0.280131,-1.84 -0.154071,-0.510262 -0.455466,-1.71975 -0.669767,-2.68775 -0.462259,-2.088051 -0.694217,-2.90312 -1.730304,-6.08 C 57.494822,79.266463 52.621562,71.110511 45.196,63.224278 40.691446,58.440269 32.871438,52.531211 27.037184,49.502871 25.175806,48.536701 24.320991,47.716089 25.596,48.119352 c 0.308,0.09741 2.864,0.766401 5.68,1.486635 12.92817,3.306572 19.462541,6.241776 24.431507,10.9745 7.564195,7.204568 10.076471,18.420545 8.485859,37.884875 -0.181923,2.226208 -0.757366,3.295808 -0.757366,1.40775 z m 9.972342,-20.84775 c -1.8851,-7.389373 -4.41184,-13.369859 -7.773952,-18.4 C 63.162518,56.92713 56.684045,50.564167 52.556,47.780153 c -1.848,-1.246318 -3.841382,-2.512622 -4.429738,-2.814008 -1.453625,-0.744621 -1.04103,-0.997425 0.82056,-0.502769 11.805901,3.137025 16.101744,5.096332 19.728762,8.998158 4.23583,4.556769 5.662102,9.511643 5.608464,19.483828 -0.0175,3.256 -0.139056,6.28 -0.270096,6.72 -0.218278,0.732925 -0.269056,0.679264 -0.60561,-0.64 z m 7.56449,-17.92 c -0.122742,-0.264 -0.432186,-1.2 -0.687658,-2.08 -1.624582,-5.596108 -5.745356,-11.089134 -10.940857,-14.584252 -2.10648,-1.417072 -1.96784,-1.431538 2.251683,-0.23494 5.435341,1.541386 8.427171,4.523216 9.410656,9.379192 0.397997,1.96512 0.369114,8.38666 -0.03382,7.52 z"
         id="path182" /></g><g
       id="g1"
       transform="translate(-0.35266718)"><path
         style="fill:#8e8c8c;stroke-width:0.0852874"
         d="m 60.061448,6.1851523 c -7.5e-5,0.9381617 0.0124,1.3335887 0.02769,0.8787307 0.01529,-0.4548595 0.01538,-1.2224463 1.7e-4,-1.7057482 -0.01524,-0.4833019 -0.02775,-0.111139 -0.02783,0.8270175 z M 86.30086,4.7423703 c 0.0041,0.099366 0.02431,0.1195678 0.05152,0.051537 0.02462,-0.061569 0.0216,-0.1351277 -0.0068,-0.163471 -0.02832,-0.02833 -0.04851,0.02203 -0.0448,0.1119405 z M 44.775793,5.5881402 c 0.0019,0.1407247 0.02084,0.1879669 0.04248,0.1049896 0.02162,-0.082985 0.0202,-0.1981189 -0.0031,-0.2558626 -0.02334,-0.057736 -0.04105,0.010145 -0.03931,0.1508767 z m -21.246454,0.00714 c 0.0041,0.099354 0.02431,0.1195678 0.05154,0.051524 0.02462,-0.061568 0.02162,-0.1351264 -0.0068,-0.1634672 -0.02834,-0.028317 -0.04849,0.02203 -0.0448,0.1119405 z m 0.347883,0.035543 c 0,0.1172758 0.01935,0.1652432 0.04302,0.1066052 0.02367,-0.058638 0.02367,-0.1545839 0,-0.2132193 -0.02367,-0.058638 -0.04302,-0.010645 -0.04302,0.1066053 z m 52.359724,-0.035543 c 0.0041,0.099366 0.02431,0.1195678 0.05152,0.051537 0.02462,-0.061569 0.02162,-0.1351277 -0.0068,-0.1634711 -0.02834,-0.028317 -0.0485,0.02203 -0.0448,0.1119406 z M 18.789157,6.6542568 c -0.139053,0.059753 -0.143922,0.074406 -0.02636,0.07929 0.07933,0.00326 0.167942,-0.032375 0.196931,-0.07929 0.0606,-0.098064 0.05765,-0.098064 -0.170574,0 z M 2.09948,6.712519 C 2.161049,6.737141 2.2346077,6.734123 2.2629473,6.705759 2.2912763,6.677404 2.2409173,6.657266 2.1510067,6.66096 2.0516527,6.66509 2.031439,6.685269 2.0994827,6.712484 Z m 9.632145,-0.00175 c 0.05864,0.023671 0.154584,0.023671 0.213219,0 0.05864,-0.023671 0.01065,-0.04302 -0.106605,-0.04302 -0.117276,0 -0.165245,0.019375 -0.106605,0.04302 z m 0.767587,0.00376 c 0.10554,0.020327 0.27825,0.020327 0.383794,0 0.10554,-0.020327 0.01919,-0.036959 -0.191897,-0.036959 -0.211087,0 -0.297441,0.016632 -0.191897,0.036959 z m 3.416826,-0.00175 c 0.06157,0.024622 0.135128,0.021604 0.163466,-0.00676 0.02834,-0.028317 -0.02204,-0.048493 -0.11194,-0.044799 -0.09935,0.00413 -0.119568,0.024309 -0.05152,0.051524 z m 1.359268,-0.00175 c 0.05864,0.023671 0.154584,0.023671 0.213219,0 0.05864,-0.023671 0.01065,-0.04302 -0.106605,-0.04302 -0.117264,0 -0.165243,0.019362 -0.106606,0.04302 z m 9.813381,0.00175 c 0.06157,0.024622 0.135126,0.021604 0.163466,-0.00676 0.02834,-0.028317 -0.02204,-0.048493 -0.111941,-0.044799 -0.09935,0.00413 -0.119567,0.024309 -0.05152,0.051524 z m 5.538349,-0.00175 c 0.05864,0.023671 0.154584,0.023671 0.21322,0 0.05864,-0.023671 0.01065,-0.04302 -0.106606,-0.04302 -0.117263,0 -0.165244,0.019362 -0.106605,0.04302 z m 3.411496,0 c 0.05864,0.023671 0.154584,0.023671 0.213219,0 0.05864,-0.023671 0.01065,-0.04302 -0.106605,-0.04302 -0.117276,0 -0.165245,0.019362 -0.106606,0.04302 z m 3.587401,0.00175 C 39.687503,6.737401 39.761061,6.734383 39.7894,6.706019 39.81774,6.677702 39.76736,6.657526 39.67746,6.66122 39.57811,6.66535 39.557905,6.685529 39.62594,6.712744 Z m 6.567129,0 c 0.06157,0.024622 0.135128,0.021604 0.163468,-0.00676 0.02834,-0.028317 -0.02204,-0.048493 -0.111941,-0.044799 -0.09935,0.00413 -0.119555,0.024309 -0.05152,0.051524 z m 17.569204,0 c 0.06157,0.024622 0.135126,0.021604 0.163466,-0.00676 0.02834,-0.028317 -0.02204,-0.048493 -0.111941,-0.044799 -0.09935,0.00413 -0.119568,0.024309 -0.05152,0.051524 z m 1.449885,0 c 0.06157,0.024622 0.135127,0.021604 0.163466,-0.00676 0.02834,-0.028317 -0.02204,-0.048493 -0.11194,-0.044799 -0.09935,0.00413 -0.119568,0.024309 -0.05152,0.051524 z m 3.194568,7.101e-4 c 0.08298,0.021604 0.198122,0.020189 0.255861,-0.00326 0.05775,-0.023383 -0.01014,-0.041054 -0.150873,-0.039313 -0.140725,0.00175 -0.187966,0.020865 -0.10499,0.042482 z m 0.809606,0.00138 c 0.106092,0.020402 0.259606,0.019613 0.34115,-0.00175 0.08153,-0.021354 -0.0053,-0.038036 -0.192894,-0.037084 -0.187632,0.00107 -0.254354,0.01841 -0.148256,0.038812 z m 3.671691,-0.00213 c 0.06157,0.024623 0.135131,0.021604 0.16347,-0.00676 0.02834,-0.028317 -0.02204,-0.048493 -0.11194,-0.044799 -0.09937,0.00413 -0.119556,0.024309 -0.05153,0.051524 z M 12.072775,7.307938 c 0.05864,0.02367 0.154583,0.02367 0.213218,0 0.05864,-0.02367 0.01065,-0.04302 -0.106605,-0.04302 -0.117276,0 -0.165244,0.01936 -0.106605,0.04302 z m 56.716116,0 c 0.05864,0.02367 0.154584,0.02367 0.213219,0 0.05864,-0.02367 0.01065,-0.04302 -0.106605,-0.04302 -0.117263,0 -0.165243,0.01936 -0.106605,0.04302 z m -47.804402,4.184683 0.916024,0.02896 0.0234,4.112238 0.0234,4.112238 -0.0014,-4.136438 -0.0013,-4.136439 -0.938161,-0.0048 -0.938161,-0.0048 0.91602,0.02897 z m 40.299111,7.1e-4 c 0.246268,0.01723 0.64925,0.01723 0.895518,0 0.246267,-0.01723 0.04477,-0.03131 -0.447758,-0.03131 -0.492535,0 -0.694027,0.0141 -0.44776,0.03131 z m 4.182425,3.48e-4 c 0.295014,0.01671 0.755566,0.01656 1.023448,-3.48e-4 0.267883,-0.01688 0.02653,-0.03052 -0.536388,-0.03038 -0.562896,1.7e-4 -0.782074,0.01396 -0.48706,0.03067 z m 4.750415,-0.0011 0.809609,0.02928 0.02341,4.112039 0.02339,4.112035 -0.0014,-4.136438 -0.0013,-4.136439 -0.831749,-0.0049 -0.831746,-0.0049 0.809606,0.02928 z m 4.412308,-8.5e-5 0.91452,0.02893 0.02715,1.16984 0.02715,1.169841 -0.0035,-1.194023 -0.0035,-1.194024 -0.938161,-0.0048 -0.938162,-0.0048 0.91451,0.02893 z m 0.934068,5.327325 c -0.0081,0.548401 0.01389,1.015012 0.04907,1.036916 0.03518,0.02189 0.05363,-0.273275 0.04099,-0.655945 -0.0414,-1.253788 -0.07489,-1.395461 -0.09006,-0.380971 z M 30.500182,16.520664 c 0.06157,0.02462 0.135128,0.0216 0.163466,-0.0068 0.02834,-0.02836 -0.02204,-0.04849 -0.11194,-0.0448 -0.09935,0.0041 -0.119568,0.02431 -0.05152,0.05152 z m 46.391012,1.362857 c 0.05864,0.02367 0.154582,0.02367 0.213218,0 0.05864,-0.02367 0.01064,-0.04302 -0.106606,-0.04302 -0.117275,0 -0.165244,0.01936 -0.106605,0.04302 z m 1.364597,0 c 0.05864,0.02367 0.154584,0.02367 0.21322,0 0.05864,-0.02367 0.01065,-0.04302 -0.106606,-0.04302 -0.117263,0 -0.165244,0.01936 -0.106605,0.04302 z m 1.3646,0 c 0.05864,0.02367 0.154583,0.02367 0.213218,0 0.05864,-0.02367 0.01065,-0.04302 -0.106605,-0.04302 -0.117276,0 -0.165244,0.01936 -0.106605,0.04302 z M 86.534,18.397022 c 0.06157,0.02462 0.13513,0.0216 0.163467,-0.0068 0.02835,-0.02836 -0.02203,-0.04849 -0.11194,-0.04479 -0.09937,0.0041 -0.119568,0.02431 -0.05152,0.05152 z m 0.03894,0.853716 c 0.08298,0.02164 0.198122,0.02021 0.255861,-0.0033 0.05775,-0.02335 -0.01014,-0.04105 -0.150873,-0.03931 -0.140725,0.0018 -0.187966,0.02086 -0.10499,0.04248 z"
         id="path184" /><path
         style="fill:#807d7d;stroke-width:0.0852874"
         d="m 7.9843103,4.4950191 c 0.061568,0.024622 0.1351264,0.021604 0.1634672,-0.00676 0.028317,-0.028317 -0.02203,-0.048493 -0.1119405,-0.044786 -0.099354,0.00413 -0.1195677,0.024309 -0.051524,0.051524 z m 4.6055197,0 c 0.06157,0.024622 0.135127,0.021604 0.163467,-0.00676 0.02834,-0.028317 -0.02204,-0.048493 -0.11194,-0.044786 -0.09935,0.00413 -0.119568,0.024309 -0.05152,0.051524 z m 10.234487,0 c 0.06157,0.024622 0.135128,0.021604 0.163467,-0.00676 0.02834,-0.028317 -0.02204,-0.048493 -0.11194,-0.044786 -0.09935,0.00413 -0.119568,0.024309 -0.05153,0.051524 z m 22.515872,0 c 0.06157,0.024622 0.135126,0.021604 0.163466,-0.00676 0.02834,-0.028317 -0.02204,-0.048493 -0.111941,-0.044786 -0.09935,0.00413 -0.119567,0.024309 -0.05152,0.051524 z m 10.490348,0 c 0.06157,0.024622 0.135128,0.021604 0.163468,-0.00676 0.02834,-0.028317 -0.02204,-0.048493 -0.111941,-0.044786 -0.09935,0.00413 -0.119568,0.024309 -0.05152,0.051524 z m 13.475409,0 c 0.06157,0.024622 0.135129,0.021604 0.163469,-0.00676 0.02834,-0.028317 -0.02204,-0.048493 -0.111941,-0.044786 -0.09937,0.00413 -0.119567,0.024309 -0.05152,0.051524 z m 7.931727,0 c 0.06157,0.024622 0.13513,0.021604 0.16347,-0.00676 0.02834,-0.028317 -0.02204,-0.048493 -0.111941,-0.044786 -0.09935,0.00413 -0.119567,0.024309 -0.05152,0.051524 z M 31.149022,6.1851523 c -7.4e-5,0.9381617 0.0124,1.3335887 0.02769,0.8787307 0.01531,-0.4548595 0.01536,-1.2224463 1.71e-4,-1.7057482 -0.01524,-0.4833019 -0.02775,-0.111139 -0.02783,0.8270175 z M 78.283843,5.5952439 c 0.0041,0.099366 0.02431,0.1195677 0.05154,0.051537 0.02462,-0.061569 0.02162,-0.1351264 -0.0068,-0.163471 -0.02834,-0.028317 -0.0485,0.02203 -0.0448,0.1119405 z M 31.795485,6.0041337 c 0,0.017734 0.06717,0.084876 0.149253,0.1492524 0.13527,0.1060918 0.138287,0.1030735 0.0322,-0.032199 C 31.865523,5.9791193 31.795483,5.9339385 31.795483,6.0041362 Z m 0.767586,0.3411494 c 0,0.017734 0.06717,0.084876 0.149253,0.1492524 0.135271,0.1060918 0.138288,0.1030735 0.0322,-0.032199 C 32.633109,6.3202687 32.563069,6.2750879 32.563069,6.3452856 Z m 24.818631,5.7995419 c 0,0.0177 0.06717,0.08488 0.149253,0.149254 0.135271,0.106092 0.138288,0.103074 0.0322,-0.0322 -0.111415,-0.142068 -0.181454,-0.187248 -0.181454,-0.117051 z m -19.494976,3.421941 c -7.4e-5,0.93816 0.0124,1.333589 0.02769,0.878729 0.01529,-0.454855 0.01535,-1.222445 1.71e-4,-1.705748 -0.01524,-0.483302 -0.02775,-0.111139 -0.02783,0.827019 z m -9.907852,0.959099 c 0.457354,0.01535 1.20575,0.01535 1.663104,0 0.457354,-0.01535 0.08316,-0.02789 -0.831552,-0.02789 -0.914708,0 -1.288906,0.01255 -0.831552,0.02789 z m 58.176933,1.983315 c 0,0.539443 0.01383,0.760124 0.03077,0.490402 0.01692,-0.26972 0.01692,-0.711083 0,-0.980805 -0.01692,-0.26972 -0.03077,-0.04904 -0.03077,0.490403 z M 10.574785,17.890676 c 0.782709,0.01408 2.087606,0.01408 2.899771,5.7e-5 0.812168,-0.01404 0.171772,-0.02555 -1.423103,-0.02559 -1.594875,-3.2e-5 -2.2593755,0.0114 -1.476668,0.02551 z m 18.049285,6.7e-5 c 0.859119,0.01393 2.240774,0.01389 3.070346,-4.8e-5 0.829569,-0.01397 0.126655,-0.02534 -1.562036,-0.0253 -1.68869,2.9e-5 -2.367431,0.0114 -1.50831,0.02537 z m 11.124464,-6e-5 c 0.738802,0.01422 1.947751,0.01422 2.686552,0 0.738803,-0.01418 0.134329,-0.0258 -1.343275,-0.0258 -1.477605,0 -2.082079,0.01165 -1.343277,0.0258 z m 12.20142,2.9e-5 c 0.741728,0.01422 1.931487,0.01418 2.643908,-6.8e-5 0.712422,-0.01425 0.105554,-0.02587 -1.348599,-0.02584 -1.45415,3.9e-5 -2.037037,0.01165 -1.295309,0.02591 z"
         id="path180" /><path
         style="fill:#706e6d;stroke-width:0.0852874"
         d="m 73.107717,5.5881402 c 0,0.6098055 0.01375,0.8480805 0.0302,0.5294996 0.01644,-0.3185797 0.01633,-0.8175105 0,-1.108735 -0.01661,-0.2912245 -0.03007,-0.030559 -0.02992,0.5792354 z M 56.443542,4.6395348 c 0,0.017697 0.06717,0.084876 0.149252,0.1492537 0.135272,0.1060918 0.138289,0.1030735 0.0322,-0.032199 C 56.513579,4.6145204 56.443539,4.5693397 56.443539,4.6395386 Z M 7.97898,4.7491083 c 0.058638,0.023671 0.1545827,0.023671 0.2132181,0 0.058638,-0.023671 0.010645,-0.04302 -0.1066053,-0.04302 -0.1172758,0 -0.1652444,0.019362 -0.1066053,0.04302 z m 4.781424,0.00175 c 0.06157,0.024622 0.135128,0.021604 0.163468,-0.00676 0.02834,-0.028355 -0.02204,-0.048493 -0.111941,-0.044799 -0.09935,0.00413 -0.119568,0.024309 -0.05152,0.051524 z m 56.716117,0 c 0.06157,0.024622 0.135129,0.021604 0.163469,-0.00676 0.02834,-0.028355 -0.02204,-0.048493 -0.111941,-0.044799 -0.09937,0.00413 -0.119568,0.024309 -0.05152,0.051524 z M 32.466904,5.0124166 c -0.106091,0.135273 -0.103073,0.13829 0.0322,0.032199 0.0821,-0.064386 0.149252,-0.1315446 0.149252,-0.1492524 0,-0.070198 -0.07004,-0.025023 -0.181453,0.1170504 z m -20.42782,0.6609765 c -2.56e-4,0.4221729 0.01415,0.6056337 0.03205,0.4076888 0.01788,-0.1979449 0.0181,-0.5433588 5.32e-4,-0.7675868 -0.01762,-0.224228 -0.03226,-0.06227 -0.03252,0.359898 z M 31.95518,5.1829913 c -0.106092,0.135273 -0.103073,0.13829 0.0322,0.032199 0.142067,-0.1114145 0.187245,-0.1814557 0.11705,-0.1814557 -0.01772,0 -0.08488,0.067167 -0.149254,0.1492524 z m 31.682301,0.7889078 c 0,0.398719 0.01469,0.5618306 0.03265,0.3624717 0.01796,-0.1993588 0.01796,-0.5255832 0,-0.7249421 -0.01796,-0.1993602 -0.03265,-0.036245 -0.03265,0.3624704 z m 1.449886,0 c 0,0.398719 0.01469,0.5618306 0.03265,0.3624717 0.01796,-0.1993588 0.01796,-0.5255832 0,-0.7249421 -0.01796,-0.1993602 -0.03265,-0.036245 -0.03265,0.3624704 z M 56.876711,5.5952376 c 0.0041,0.099354 0.02431,0.1195677 0.05152,0.051524 0.02462,-0.061568 0.02162,-0.1351277 -0.0068,-0.1634685 -0.02834,-0.028355 -0.04849,0.02203 -0.0448,0.1119405 z M 31.539623,5.7481821 c 0,0.017734 0.06717,0.084876 0.149252,0.1492537 0.135272,0.1060917 0.138289,0.1030734 0.0322,-0.0322 C 31.60966,5.7231677 31.53962,5.6779869 31.53962,5.7481859 Z M 11.589105,6.5333164 c 0.0041,0.099366 0.02431,0.1195678 0.05152,0.051537 0.02462,-0.061569 0.02162,-0.1351277 -0.0068,-0.1634711 -0.02834,-0.028317 -0.04849,0.02203 -0.0448,0.1119406 z m 58.080711,0 c 0.0041,0.099366 0.02431,0.1195678 0.05154,0.051537 0.02462,-0.061569 0.02162,-0.1351277 -0.0068,-0.1634711 -0.02834,-0.028317 -0.04851,0.02203 -0.0448,0.1119406 z M 12.028597,6.9952935 c 0,0.1641785 0.01756,0.2313435 0.039,0.1492535 0.02145,-0.08209 0.02145,-0.2164166 0,-0.2985059 -0.02145,-0.082096 -0.039,-0.014929 -0.039,0.1492524 z m 4.415157,5.1494435 c 0,0.0177 0.06717,0.08488 0.149253,0.149253 0.135272,0.106092 0.138289,0.103074 0.0322,-0.0322 -0.111414,-0.142068 -0.181454,-0.187248 -0.181454,-0.117051 z m 20.287519,0.11705 c -0.106092,0.135269 -0.103073,0.138286 0.0322,0.0322 0.142067,-0.111414 0.187245,-0.181453 0.11705,-0.181453 -0.01772,0 -0.08488,0.06717 -0.149254,0.149254 z M 15.456278,15.60932 c 0,0.961616 0.0124,1.355003 0.02764,0.874196 0.01519,-0.480808 0.01519,-1.267584 0,-1.748391 -0.01519,-0.480808 -0.02764,-0.08742 -0.02764,0.874195 z m 42.699744,1.755499 c 0.0041,0.09935 0.02431,0.119568 0.05152,0.05152 0.02462,-0.06157 0.02162,-0.135128 -0.0068,-0.163469 -0.02834,-0.02832 -0.04849,0.02203 -0.0448,0.111941 z m 27.541095,2.114634 c 0,0.0177 0.06717,0.08488 0.149253,0.149252 0.135273,0.106092 0.138286,0.103073 0.0322,-0.0322 -0.111427,-0.142067 -0.181457,-0.187248 -0.181457,-0.11705 z m 2.291879,0.11705 c -0.10608,0.135269 -0.103074,0.138286 0.0322,0.0322 0.142061,-0.111414 0.187249,-0.181451 0.11705,-0.181451 -0.0177,0 -0.08487,0.06717 -0.149253,0.149252 z"
         id="path178" /><path
         style="fill:#605c5b;stroke-width:0.0852874"
         d="m 44.737847,3.4721006 c -0.0821,0.021466 -0.149254,0.086617 -0.149254,0.1448038 0,0.076009 0.138083,0.095922 0.490403,0.070699 0.65175,-0.04664 0.959484,0.1682615 0.959484,0.670054 0,0.3185058 -0.09902,0.434454 -0.21322,0.2496745 -0.02899,-0.046903 -0.221011,-0.085289 -0.426714,-0.085289 -0.577273,0 -0.829861,0.262617 -0.876807,0.9116192 -0.04382,0.6058641 0.112604,0.9810603 0.490501,1.1764754 0.317953,0.1644228 0.458588,0.1626744 0.792175,-0.00989 0.186135,-0.096248 0.279125,-0.1094107 0.301379,-0.042645 0.0177,0.053102 0.08655,0.096561 0.153011,0.096561 0.176655,0 0.173254,-2.2680447 -0.004,-2.692363 C 46.069795,3.5190091 45.39358,3.3006849 44.737884,3.4720336 Z m 1.193545,1.408397 c 0.06808,0.056496 0.107081,0.316309 0.107081,0.7132509 0,0.5485287 -0.02303,0.6405008 -0.189552,0.7571417 -0.531252,0.3721027 -1.092798,-0.03895 -1.088501,-0.7967968 0.0038,-0.6639836 0.699983,-1.0644797 1.170966,-0.6735958 z M 2.0301841,5.5881402 c 0,0.8907777 0.02104,1.0660928 0.1279313,1.0660928 0.070361,0 0.1279314,-0.057573 0.1279314,-0.1279313 0,-0.1618717 0.1193673,-0.164473 0.2513126,-0.00551 C 2.6894235,6.7040145 3.1169016,6.7693052 3.3991138,6.6524114 3.7156082,6.5213139 3.8201069,6.1677018 3.8207431,5.2256428 3.8210988,4.5787196 3.8074926,4.5220217 3.6506443,4.5220217 c -0.1591213,0 -0.1705746,0.056859 -0.1705746,0.8467792 0,0.902181 -0.083573,1.1148305 -0.4381349,1.1148305 -0.1954151,0 -0.5134374,-0.1523334 -0.6053281,-0.2899521 C 2.4021407,6.1420673 2.3733597,5.74483 2.3726457,5.3109295 2.3715757,4.5793132 2.3589697,4.5220217 2.2007635,4.5220217 c -0.1614772,0 -0.1705747,0.056859 -0.1705747,1.0660928 z M 7.4126783,4.6410665 C 7.1219021,4.8022319 6.9833516,5.0999339 6.9798762,5.5710548 c -0.00376,0.5015219 0.1746162,0.8677709 0.5059116,1.0390883 0.4968017,0.256911 0.9444374,0.090124 1.1631786,-0.4333983 0.2485673,-0.5949042 0.2112217,-0.631248 -0.6486653,-0.631248 -0.422173,0 -0.7675868,-0.035882 -0.7675868,-0.079741 0,-0.4728618 0.5247279,-0.8139862 1.1084982,-0.7206402 0.3403328,0.054417 0.4840345,-0.0648 0.2064826,-0.1713061 C 8.3116356,4.4832226 7.6239276,4.5239761 7.4126783,4.641064 Z m 1.0140601,1.3118912 c 0,0.3933699 -0.4034243,0.6323601 -0.8064065,0.4777198 C 7.5004761,6.384689 7.2327143,5.9823392 7.2327143,5.8482385 c 0,-0.025762 0.268656,-0.046878 0.5970121,-0.046878 0.5152421,0 0.597012,0.020752 0.597012,0.1515972 z M 12.228121,4.6560704 c -0.102886,0.1028856 -0.134025,0.3208403 -0.134025,0.9381615 0,0.8008909 -8.16e-4,0.8041384 -0.213218,0.8041384 -0.268945,0 -0.287298,0.2334784 -0.02133,0.2712498 0.147079,0.02089 0.198139,0.09199 0.218624,0.3044413 0.03787,0.3928266 0.271779,0.3744786 0.271779,-0.021316 0,-0.2914023 0.0081,-0.298506 0.34115,-0.298506 0.246384,0 0.341149,-0.035544 0.341149,-0.1279314 0,-0.09239 -0.09477,-0.1279313 -0.341149,-0.1279313 h -0.341143 l 0.0013,-0.7036199 c 8.19e-4,-0.3869915 0.03504,-0.7569013 0.07629,-0.8220179 0.04123,-0.065113 0.194079,-0.1226863 0.339648,-0.1279314 0.149677,-0.00539 0.264757,-0.055858 0.264868,-0.1161486 2.56e-4,-0.157199 -0.641207,-0.1353268 -0.803945,0.027403 z m 3.986482,0.9320698 c -0.309476,0.9348927 -0.334635,1.0660928 -0.204437,1.0660928 0.115096,0 0.203288,-0.1928138 0.392328,-0.8577354 0.134119,-0.4717534 0.265805,-0.8713027 0.292634,-0.8878846 0.02683,-0.016557 0.157782,0.3694013 0.291006,0.8577353 0.212795,0.7800145 0.264721,0.8878847 0.427412,0.8878847 0.162142,0 0.210362,-0.098189 0.387413,-0.7889078 0.242576,-0.946346 0.308343,-1.0979968 0.375883,-0.866769 0.396328,1.3568614 0.507769,1.6556768 0.617475,1.6556768 0.166995,0 0.166452,-0.00288 -0.204202,-1.1115679 -0.254401,-0.7609164 -0.363524,-0.9834387 -0.491658,-1.0025968 -0.142476,-0.021291 -0.197701,0.1023471 -0.409502,0.9168404 -0.13465,0.5178008 -0.256093,0.9414616 -0.269876,0.9414616 -0.01378,0 -0.08459,-0.2113056 -0.157352,-0.4695742 C 17.188974,5.6705313 17.070033,5.2483597 16.997432,4.9906346 16.779959,4.2186594 16.630067,4.333066 16.214603,5.5881402 Z m 5.977522,-0.7761145 c -0.254698,0.2546967 -0.289978,0.34341 -0.289978,0.7291791 0,0.5313394 0.17333,0.8953929 0.508934,1.0689383 0.311595,0.1611365 0.524624,0.1630765 0.895382,0.00814 0.406735,-0.169946 0.586234,-0.5521257 0.537172,-1.1437323 C 23.810947,5.0803749 23.761351,4.9663629 23.53438,4.7635599 23.320892,4.5728076 23.18185,4.5220261 22.873077,4.5220261 c -0.330923,0 -0.435515,0.044536 -0.680952,0.2899771 z m 0.945263,-0.034642 c 0.284863,0.1083086 0.504209,0.612686 0.439598,1.0108402 -0.157816,0.9725001 -1.292165,0.9005491 -1.389742,-0.088145 -0.04239,-0.4295208 0.09806,-0.7456821 0.398884,-0.8978915 0.257331,-0.1302019 0.272267,-0.1308732 0.55126,-0.024798 z m 3.882003,0.8107737 c 0,0.8907765 0.02103,1.0660928 0.127931,1.0660928 0.07108,0 0.12793,-0.075808 0.12793,-0.1705747 0,-0.093818 0.03837,-0.1705759 0.08529,-0.1705759 0.0469,0 0.08529,0.037397 0.08529,0.083098 0,0.1001303 0.450113,0.3433424 0.635421,0.3433424 0.227384,0 0.144074,-0.2498499 -0.102372,-0.3070312 -0.569762,-0.1321846 -0.618333,-0.2187613 -0.618333,-1.1021798 0,-0.7514032 -0.01202,-0.8082614 -0.170575,-0.8082614 -0.161478,0 -0.170575,0.056859 -0.170575,1.0660928 z m 4.179082,0.5970121 c 0,1.4214555 0.01857,1.6631035 0.127931,1.6631035 0.109349,0 0.127931,-0.241648 0.127931,-1.6631035 0,-1.4214609 -0.01857,-1.6631049 -0.127931,-1.6631049 -0.109348,0 -0.127931,0.241644 -0.127931,1.6631049 z m 0.870678,-1.079416 -0.518753,0.5836927 0.495848,0.4906736 c 0.29419,0.2911205 0.553679,0.4786391 0.638051,0.4610816 0.106467,-0.022143 0.02438,-0.1457357 -0.326646,-0.4917958 L 31.88881,5.6872084 32.405297,5.1046354 c 0.407194,-0.4592944 0.481163,-0.5825705 0.349551,-0.5825705 -0.09894,0 -0.378266,0.2377741 -0.685697,0.5836886 z m 3.905416,0.4824039 c 0,1.0092309 0.0091,1.0660928 0.170575,1.0660928 0.161478,0 0.170575,-0.056859 0.170575,-1.0660928 0,-1.0092346 -0.0091,-1.0660928 -0.170575,-1.0660928 -0.161478,0 -0.170575,0.056859 -0.170575,1.0660928 z m 3.58207,0 c 0,0.8907765 0.02103,1.0660928 0.127932,1.0660928 0.07036,0 0.12793,-0.057573 0.12793,-0.1279313 0,-0.1475191 0.13409,-0.1706786 0.21647,-0.037384 0.09798,0.158524 0.497106,0.2637191 0.791244,0.2085378 0.396319,-0.074343 0.527459,-0.4236858 0.527459,-1.4050805 0,-0.7134689 -0.01257,-0.7703271 -0.170574,-0.7703271 -0.158688,0 -0.170575,0.056859 -0.170575,0.8158384 0,0.4487116 -0.03973,0.8900727 -0.0883,0.9808049 C 40.800546,6.5385868 40.40966,6.5327944 40.122497,6.3069354 39.908124,6.1383083 39.89778,6.0931626 39.89778,5.3261307 c 0,-0.7471825 -0.01202,-0.8040408 -0.170574,-0.8040408 -0.161479,0 -0.170575,0.056859 -0.170575,1.0660929 z M 50.530281,4.5789231 c -0.139651,0.1396514 -0.035,0.2138869 0.231123,0.163962 0.522937,-0.098101 0.966933,0.2106744 0.764468,0.5316462 -0.04589,0.072753 -0.272677,0.1955027 -0.503976,0.2727878 -0.311853,0.1042006 -0.441016,0.1983857 -0.499763,0.3644229 -0.106154,0.3000403 0.05244,0.6349715 0.355358,0.7504751 0.302746,0.1154348 0.960531,0.022456 0.960531,-0.1357626 0,-0.086128 -0.07819,-0.1046515 -0.293877,-0.069647 -0.40488,0.065701 -0.707664,-0.025624 -0.773577,-0.233283 -0.07673,-0.2417568 0.07092,-0.3871968 0.503752,-0.4961842 0.441276,-0.1111139 0.592132,-0.2706236 0.592132,-0.6260943 0,-0.3843088 -0.280572,-0.5791765 -0.833895,-0.5791765 -0.24498,0 -0.471003,0.025587 -0.502276,0.056859 z m 4.707464,0.1846756 c -0.22821,0.2039052 -0.276501,0.3160473 -0.309985,0.7197973 -0.05179,0.6244637 0.178616,1.0358333 0.661121,1.1803954 0.394734,0.1182652 0.682513,0.056985 0.995091,-0.211878 0.201428,-0.1732623 0.238794,-0.2793203 0.269761,-0.7656543 0.03513,-0.5515708 0.02906,-0.5714253 -0.263881,-0.8643656 -0.255706,-0.2557099 -0.357363,-0.2998286 -0.690804,-0.2998286 -0.308773,0 -0.447815,0.050785 -0.661303,0.2415338 z m 1.063193,0.1033115 c 0.273636,0.2152469 0.369374,0.6664457 0.235918,1.1118772 C 56.303304,6.7583172 55.36061,6.627231 55.206874,5.793845 55.061818,5.0075021 55.744429,4.4291648 56.300938,4.8669102 Z m 3.80996,1.3182621 c 0,1.4214557 0.01857,1.6631037 0.127932,1.6631037 0.109348,0 0.127931,-0.241648 0.127931,-1.6631037 0,-1.4214609 -0.01857,-1.6631049 -0.127931,-1.6631049 -0.109348,0 -0.127932,0.241644 -0.127932,1.6631049 z M 63.902313,4.731398 c -0.19448,0.1944769 -0.209343,0.2701702 -0.209343,1.0660928 0,0.7046982 0.02271,0.856751 0.127931,0.856751 0.104551,0 0.12793,-0.1450744 0.12793,-0.79393 0,-0.8830504 0.0706,-1.0521122 0.472268,-1.1309214 0.185866,-0.03647 0.317135,-0.00376 0.464651,0.1156602 0.185912,0.1505398 0.209045,0.2451595 0.241529,0.9878384 0.0273,0.6243534 0.06416,0.8213528 0.153681,0.8213528 0.09195,0 0.117752,-0.1789759 0.117752,-0.8167941 0,-0.7890506 -0.0085,-0.825254 -0.249303,-1.0660915 -0.336408,-0.3364091 -0.931581,-0.3554783 -1.247101,-0.039964 z m 5.030807,-0.08837 c -0.139743,0.1021091 -0.170157,0.248347 -0.195103,0.9381615 -0.02886,0.7978676 -0.0344,0.8171948 -0.234539,0.8171948 -0.125358,0 -0.204989,0.049696 -0.204989,0.1279313 0,0.079603 0.08054,0.1279314 0.213218,0.1279314 0.186822,0 0.213218,0.036959 0.213218,0.298506 0,0.241644 0.0325,0.298506 0.170575,0.298506 0.138081,0 0.170575,-0.05686 0.170575,-0.298506 0,-0.2842911 0.0142,-0.298506 0.298506,-0.298506 0.208477,0 0.298506,-0.038587 0.298506,-0.1279314 0,-0.089347 -0.09002,-0.1279313 -0.298506,-0.1279313 H 69.066075 V 5.628687 c 0,-0.7557815 0.0041,-0.7712639 0.227922,-0.8563565 0.125365,-0.047654 0.278882,-0.067104 0.34115,-0.043208 0.06243,0.023946 0.11323,-0.012724 0.11323,-0.081807 0,-0.1663102 -0.589267,-0.1694087 -0.815255,-0.00426 z m 3.885601,0.9451262 c 0,0.8907777 0.02103,1.0660928 0.127931,1.0660928 0.106893,0 0.12793,-0.1753151 0.12793,-1.0660928 0,-0.8907803 -0.02103,-1.0660916 -0.12793,-1.0660916 -0.106893,0 -0.127931,0.1753113 -0.127931,1.0660916 z m 3.826162,-0.8245578 c -0.226976,0.2028055 -0.276571,0.3168138 -0.309259,0.7109916 -0.04906,0.5916067 0.130438,0.9737901 0.537174,1.1437348 0.37076,0.1549108 0.583782,0.1529708 0.895379,-0.00814 0.335605,-0.1735491 0.508937,-0.5376026 0.508937,-1.0689433 0,-0.3857691 -0.03528,-0.4744811 -0.289978,-0.7291778 -0.245441,-0.2454401 -0.350027,-0.2899771 -0.680951,-0.2899771 -0.308774,0 -0.44782,0.050785 -0.661302,0.2415338 z m 1.16315,0.192646 c 0.2612,0.2565978 0.240262,1.013072 -0.03619,1.3073386 C 77.161746,6.9130013 76.31589,6.0661694 76.687146,5.1776347 76.8954,4.6791975 77.420446,4.5754978 77.808027,4.9562422 Z m 3.624714,0.6319118 c 0,0.8907777 0.02104,1.0660928 0.127932,1.0660928 0.07036,0 0.127931,-0.057573 0.127931,-0.1279314 0,-0.1647284 0.01713,-0.1623901 0.38029,0.051875 0.227611,0.1342961 0.379919,0.1657104 0.601673,0.124114 0.43611,-0.081808 0.553211,-0.370918 0.553211,-1.3657711 0,-0.7576076 -0.0119,-0.8144658 -0.170576,-0.8144658 -0.159538,0 -0.170575,0.056859 -0.170575,0.8784603 0,0.5695304 -0.03599,0.9144508 -0.102347,0.9808048 C 82.622903,6.5387096 82.247915,6.5030046 81.99862,6.3069148 81.784239,6.1382839 81.773894,6.0931419 81.773894,5.32611 c 0,-0.7471813 -0.01202,-0.8040395 -0.170574,-0.8040395 -0.161478,0 -0.170575,0.056859 -0.170575,1.0660916 z m 5.003527,-1.0092334 c -0.141206,0.1412032 -0.03056,0.2098002 0.262971,0.1629951 0.384305,-0.06128 0.735738,0.095434 0.771704,0.3441126 0.03099,0.2143165 -0.09138,0.3189855 -0.537164,0.4594823 -0.46827,0.1475829 -0.554369,0.2332466 -0.554369,0.5515896 0,0.444283 0.432048,0.7083653 0.988218,0.6040269 0.423388,-0.079428 0.389082,-0.2996583 -0.03776,-0.2424056 -0.384916,0.051624 -0.694595,-0.086028 -0.694595,-0.3087582 0,-0.1978585 0.14341,-0.3183518 0.469557,-0.3945247 0.463359,-0.1082209 0.639179,-0.2720777 0.639179,-0.5956896 0,-0.4458547 -0.239462,-0.6376866 -0.796016,-0.6376866 -0.25018,0 -0.480456,0.025587 -0.511725,0.056858 z M 35.974567,7.42182 c 0,0.113706 0.05686,0.170575 0.170575,0.170575 0.113719,0 0.170575,-0.05686 0.170575,-0.170575 0,-0.113719 -0.05686,-0.170575 -0.170575,-0.170575 -0.113719,0 -0.170575,0.05686 -0.170575,0.170575 z m 36.844154,0 c 0,0.113706 0.05686,0.170575 0.170574,0.170575 0.113719,0 0.170575,-0.05686 0.170575,-0.170575 0,-0.113719 -0.05686,-0.170575 -0.170575,-0.170575 -0.113719,0 -0.170574,0.05686 -0.170574,0.170575 z m -3.458993,6.609772 c -4.3e-5,1.407243 0.01165,1.994898 0.02596,1.305904 0.01431,-0.688995 0.01436,-1.840375 7e-5,-2.558622 -0.01429,-0.718248 -0.02599,-0.154524 -0.02604,1.252718 z M 44.290088,13.6478 c 0.0849,0.09382 0.173557,0.170574 0.197011,0.170574 0.02346,0 -0.02683,-0.07676 -0.111728,-0.170574 -0.0849,-0.09382 -0.173557,-0.170575 -0.197011,-0.170575 -0.02346,0 0.02681,0.07676 0.111728,0.170575 z m -10.775391,0.341149 c 0,0.117263 0.01935,0.165244 0.04302,0.106605 0.02367,-0.05864 0.02367,-0.154584 0,-0.213218 -0.02367,-0.05864 -0.04302,-0.01065 -0.04302,0.106605 z m 24.670428,1.577817 c -7.4e-5,0.93816 0.0124,1.333589 0.02769,0.878729 0.0153,-0.454855 0.01536,-1.222445 1.7e-4,-1.705748 -0.01522,-0.483302 -0.02775,-0.111139 -0.02783,0.827019 z m 28.218683,2.388046 c 7.12e-4,0.23454 0.0172,0.320364 0.03681,0.190724 0.01958,-0.129644 0.01909,-0.32154 -0.0011,-0.426437 -0.02023,-0.104902 -0.03628,0.0011 -0.03564,0.235713 z m -0.0109,0.895518 c 0,0.117276 0.01936,0.165244 0.04302,0.106605 0.02367,-0.05864 0.02367,-0.154583 0,-0.213218 -0.02367,-0.05864 -0.04302,-0.01065 -0.04302,0.106605 z m -4.374006,0.149252 c -0.106079,0.135271 -0.103073,0.138288 0.0322,0.0322 0.142063,-0.111415 0.187248,-0.181453 0.11705,-0.181453 -0.0177,0 -0.08486,0.06717 -0.149254,0.149253 z m 3.635598,0.788909 c 0.0849,0.09382 0.173561,0.170575 0.197015,0.170575 0.02346,0 -0.02683,-0.07676 -0.111728,-0.170575 -0.0849,-0.09382 -0.173561,-0.170574 -0.197014,-0.170574 -0.02346,0 0.02683,0.07676 0.111727,0.170574 z m 2.465233,0.02132 -0.162472,0.191896 0.191897,-0.162471 c 0.180332,-0.152683 0.230715,-0.221322 0.162471,-0.221322 -0.01617,0 -0.102547,0.08635 -0.191896,0.191897 z"
         id="path176" /><path
         style="fill:#4c4948;stroke-width:0.0852874"
         d="m 7.3180035,15.614691 v 4.099078 l 4.0298295,-0.0266 c 3.914116,-0.02584 4.041216,-0.03186 4.426343,-0.209902 0.506843,-0.234296 1.062215,-0.789671 1.296513,-1.29651 0.17238,-0.372898 0.183296,-0.526056 0.183296,-2.571344 0,-2.109381 -0.0061,-2.188379 -0.20348,-2.625098 -0.266062,-0.588757 -0.908727,-1.169266 -1.48339,-1.339922 -0.359156,-0.106656 -1.104771,-0.128777 -4.341371,-0.128777 H 7.3180035 Z m 7.9436005,-2.14515 c 0.199066,0.16105 0.201639,0.184246 0.227299,2.048827 l 0.02596,1.885934 -0.253933,0.253932 -0.25394,0.253933 H 12.058016 9.109041 v -2.302759 -2.30276 h 2.975611 c 2.801701,0 2.987377,0.0095 3.176955,0.162893 z m 4.849508,2.139867 v 4.093794 h 0.895519 0.895516 v -4.093794 -4.093795 h -0.895516 -0.895519 z m 4.690807,-3.198277 v 0.895517 h 3.186775 c 3.094834,0 3.193261,0.0051 3.411495,0.176765 0.173336,0.136345 0.224721,0.251943 0.224721,0.505533 0,0.253593 -0.05139,0.36919 -0.224721,0.505535 -0.210356,0.165468 -0.334369,0.176807 -1.940289,0.177413 -2.785571,10e-4 -3.50772,0.14847 -4.220901,0.861652 -0.521938,0.521937 -0.650298,0.857175 -0.650298,1.69839 0,0.680944 0.01831,0.755555 0.289143,1.177482 0.3542,0.551829 0.692517,0.818122 1.343721,1.057653 0.471015,0.173253 0.681828,0.185633 3.71892,0.218379 l 3.219599,0.03472 v -0.900998 -0.900998 l -3.149503,-0.02432 c -3.046202,-0.02352 -3.157396,-0.03019 -3.390174,-0.20337 -0.340841,-0.25357 -0.370999,-0.689594 -0.06743,-0.974996 l 0.223956,-0.210554 2.317378,-0.04614 c 2.598233,-0.05174 2.905496,-0.113093 3.617252,-0.722327 1.248504,-1.068674 0.991441,-3.081558 -0.489643,-3.834057 -0.683288,-0.34716 -1.129336,-0.386786 -4.353855,-0.386786 h -3.066146 z m 12.901817,-0.75601 c -0.515305,0.184702 -1.155805,0.793783 -1.397757,1.329188 -0.197355,0.436719 -0.20348,0.515719 -0.20348,2.625099 v 2.174828 l 0.240347,0.489451 c 0.257912,0.525221 0.743243,0.98527 1.301401,1.233607 0.290025,0.129038 0.694682,0.15295 3.039056,0.179583 3.50922,0.03986 4.164448,-0.0657 4.776292,-0.769539 L 45.690937,18.651211 44.960906,18.1194 c -0.717608,-0.522764 -0.732792,-0.529053 -0.892319,-0.369523 -0.152889,0.152887 -0.323284,0.16229 -2.94069,0.16229 h -2.778403 l -0.253933,-0.253933 -0.253932,-0.253932 0.02596,-1.885934 c 0.02566,-1.864581 0.02823,-1.887777 0.227299,-2.048827 0.189015,-0.152918 0.372386,-0.162893 2.99448,-0.162893 h 2.793133 l 0.316912,0.215064 0.316915,0.215061 0.643226,-0.575686 0.643227,-0.575684 -0.324603,-0.280599 c -0.178534,-0.154329 -0.538079,-0.385436 -0.798989,-0.513572 l -0.47439,-0.232976 -3.070346,-0.01616 c -2.556481,-0.01345 -3.13066,0.0055 -3.430719,0.113018 z m 12.232608,-0.01649 c -0.769559,0.274507 -1.388927,0.920808 -1.595693,1.66508 -0.04606,0.165797 -0.08396,1.206121 -0.08422,2.311832 -2.66e-4,1.615866 0.02617,2.088583 0.135303,2.408874 0.185482,0.54436 0.77909,1.182391 1.332918,1.432669 0.447749,0.20234 0.467446,0.203478 3.520615,0.203478 h 3.070346 l 0.419862,-0.206644 c 0.506453,-0.24926 0.976071,-0.70224 1.203426,-1.160783 0.152038,-0.30664 0.170117,-0.553112 0.193051,-2.632078 l 0.0253,-2.293758 -0.221987,-0.453727 c -0.283243,-0.578917 -0.877158,-1.104948 -1.434378,-1.270425 -0.595767,-0.176924 -6.070663,-0.180696 -6.564549,-0.0045 z m 6.251336,1.838597 c 0.160656,0.160655 0.170575,0.284291 0.170575,2.125995 v 1.95542 l -0.228908,0.180059 c -0.2238,0.176039 -0.290618,0.179511 -2.992684,0.155443 L 50.37289,17.869525 50.20994,17.66818 c -0.149248,-0.184412 -0.162952,-0.357395 -0.162952,-2.056718 0,-1.74789 0.01027,-1.86839 0.176766,-2.080093 l 0.176764,-0.22472 h 2.808295 c 2.694575,0 2.815201,0.0069 2.978867,0.170574 z m 4.690808,2.132185 v 4.093794 h 0.960247 0.960248 l 1.406477,-2.94944 c 0.773562,-1.622193 1.47878,-3.138177 1.56715,-3.368852 0.08837,-0.230677 0.184665,-0.419411 0.213985,-0.419411 0.02932,0 0.141092,0.23987 0.248388,0.533046 0.107294,0.293176 0.798986,1.799564 1.537087,3.34753 l 1.342008,2.814484 0.956804,0.02412 0.956805,0.02412 v -4.096588 -4.096589 h -0.81023 -0.810231 v 2.515979 c 0,1.383787 -0.02937,2.515978 -0.06527,2.515978 -0.03589,0 -0.136135,-0.199545 -0.22276,-0.443435 -0.08662,-0.243888 -0.610863,-1.376078 -1.164975,-2.515977 L 66.94673,11.515626 h -0.972882 -0.972879 l -1.028288,2.110864 c -0.565559,1.160974 -1.09973,2.321948 -1.187046,2.579943 l -0.158761,0.46908 -0.02257,-2.579942 -0.02258,-2.579945 h -0.851621 -0.851625 z m 12.878395,0.0043 v 4.098082 l 3.603393,-0.0256 c 4.045786,-0.02876 3.903946,-0.008 4.62888,-0.676246 0.675313,-0.622483 0.765548,-0.877531 0.765548,-2.163844 0,-1.068584 -0.0091,-1.125206 -0.251939,-1.563549 -0.275188,-0.496804 -0.563238,-0.774502 -1.102723,-1.063115 -0.337739,-0.180679 -0.455665,-0.188797 -3.101605,-0.213517 l -2.750519,-0.0257 V 12.747902 11.51561 h -0.895517 -0.895518 z m 7.052032,0.351733 c 0.173909,0.163378 0.197398,0.265313 0.197398,0.856751 0,0.599031 -0.02254,0.693848 -0.209339,0.88065 l -0.209345,0.209346 h -2.519851 -2.51986 V 16.8461 15.780009 h 2.5318 c 2.482084,0 2.535687,0.0036 2.729197,0.185441 z m 5.305984,1.075477 c -1.044712,0.545765 -1.230255,1.952627 -0.364569,2.764387 0.886536,0.831315 2.251083,0.549966 2.77015,-0.571166 0.228322,-0.493142 0.20452,-0.964638 -0.07577,-1.501182 -0.192245,-0.367989 -0.324049,-0.499799 -0.692037,-0.692039 -0.595767,-0.311228 -1.042007,-0.311228 -1.637774,0 z m 1.734805,0.294153 c 0.163215,0.124489 0.363955,0.367972 0.446106,0.541083 0.204868,0.431731 0.148919,1.186021 -0.115522,1.55739 -0.573491,0.805389 -1.921032,0.80238 -2.497312,-0.0056 -0.163537,-0.229287 -0.199075,-0.38688 -0.199075,-0.882765 0,-0.523282 0.03043,-0.643543 0.228535,-0.90328 0.336509,-0.441182 0.694402,-0.593466 1.317725,-0.560684 0.40746,0.02143 0.588277,0.07744 0.819543,0.253833 z m -1.640861,1.174129 v 0.938162 h 0.492749 c 0.558632,0 0.872566,-0.163213 0.870543,-0.452596 -0.0016,-0.2378 -0.07681,-0.348492 -0.325565,-0.479568 -0.167532,-0.08827 -0.17972,-0.120582 -0.07719,-0.204664 0.1353,-0.110951 0.489343,-0.609227 0.489343,-0.688695 0,-0.02794 -0.05392,-0.0508 -0.119831,-0.0508 -0.0659,0 -0.220817,0.172326 -0.344246,0.382946 -0.21755,0.371214 -0.525243,0.553802 -0.725103,0.43028 -0.04957,-0.03063 -0.09014,-0.226148 -0.09014,-0.434466 0,-0.208318 -0.03837,-0.37876 -0.08529,-0.37876 -0.05169,0 -0.08529,0.369579 -0.08529,0.938162 z m 1.006391,0.187633 c 0.278831,0.278829 -0.02403,0.612359 -0.511937,0.563741 -0.207062,-0.02064 -0.27216,-0.07248 -0.296774,-0.236338 -0.01735,-0.115448 -0.01255,-0.259372 0.01065,-0.319829 0.05355,-0.139571 0.660306,-0.145331 0.79806,-0.0075 z"
         id="path174" /></g></g></svg>
